<svg id="visual" viewBox="0 0 900 600" width="900" height="600" xmlns="http://www.w3.org/2000/svg" xmlns:xlink="http://www.w3.org/1999/xlink" version="1.1"><rect x="0" y="0" width="900" height="600" fill="#1a1a1d"></rect><path d="M0 403L21.5 407.5C43 412 86 421 128.8 418.5C171.7 416 214.3 402 257.2 392.3C300 382.7 343 377.3 385.8 370.8C428.7 364.3 471.3 356.7 514.2 358.7C557 360.7 600 372.3 642.8 380.5C685.7 388.7 728.3 393.3 771.2 388.5C814 383.7 857 369.3 878.5 362.2L900 355L900 601L878.5 601C857 601 814 601 771.2 601C728.3 601 685.7 601 642.8 601C600 601 557 601 514.2 601C471.3 601 428.7 601 385.8 601C343 601 300 601 257.2 601C214.3 601 171.7 601 128.8 601C86 601 43 601 21.5 601L0 601Z" fill="#1a1a1d"></path><path d="M0 446L21.5 435.8C43 425.7 86 405.3 128.8 397.7C171.7 390 214.3 395 257.2 396.8C300 398.7 343 397.3 385.8 394C428.7 390.7 471.3 385.3 514.2 395C557 404.7 600 429.3 642.8 430.3C685.7 431.3 728.3 408.7 771.2 397.8C814 387 857 388 878.5 388.5L900 389L900 601L878.5 601C857 601 814 601 771.2 601C728.3 601 685.7 601 642.8 601C600 601 557 601 514.2 601C471.3 601 428.7 601 385.8 601C343 601 300 601 257.2 601C214.3 601 171.7 601 128.8 601C86 601 43 601 21.5 601L0 601Z" fill="#282c36"></path><path d="M0 445L21.5 451.8C43 458.7 86 472.3 128.8 478C171.7 483.7 214.3 481.3 257.2 469.5C300 457.7 343 436.3 385.8 427.2C428.7 418 471.3 421 514.2 423.3C557 425.7 600 427.3 642.8 432.8C685.7 438.3 728.3 447.7 771.2 452.7C814 457.7 857 458.3 878.5 458.7L900 459L900 601L878.5 601C857 601 814 601 771.2 601C728.3 601 685.7 601 642.8 601C600 601 557 601 514.2 601C471.3 601 428.7 601 385.8 601C343 601 300 601 257.2 601C214.3 601 171.7 601 128.8 601C86 601 43 601 21.5 601L0 601Z" fill="#314150"></path><path d="M0 458L21.5 455.8C43 453.7 86 449.3 128.8 450.7C171.7 452 214.3 459 257.2 459.5C300 460 343 454 385.8 452C428.7 450 471.3 452 514.2 455C557 458 600 462 642.8 470.5C685.7 479 728.3 492 771.2 489.2C814 486.3 857 467.7 878.5 458.3L900 449L900 601L878.5 601C857 601 814 601 771.2 601C728.3 601 685.7 601 642.8 601C600 601 557 601 514.2 601C471.3 601 428.7 601 385.8 601C343 601 300 601 257.2 601C214.3 601 171.7 601 128.8 601C86 601 43 601 21.5 601L0 601Z" fill="#355869"></path><path d="M0 489L21.5 493.7C43 498.3 86 507.7 128.8 510.2C171.7 512.7 214.3 508.3 257.2 503.3C300 498.3 343 492.7 385.8 496.3C428.7 500 471.3 513 514.2 520C557 527 600 528 642.8 520.7C685.7 513.3 728.3 497.7 771.2 497.3C814 497 857 512 878.5 519.5L900 527L900 601L878.5 601C857 601 814 601 771.2 601C728.3 601 685.7 601 642.8 601C600 601 557 601 514.2 601C471.3 601 428.7 601 385.8 601C343 601 300 601 257.2 601C214.3 601 171.7 601 128.8 601C86 601 43 601 21.5 601L0 601Z" fill="#36707f"></path><path d="M0 542L21.5 542.8C43 543.7 86 545.3 128.8 541.3C171.7 537.3 214.3 527.7 257.2 523.2C300 518.7 343 519.3 385.8 524.3C428.7 529.3 471.3 538.7 514.2 538.3C557 538 600 528 642.8 526.7C685.7 525.3 728.3 532.7 771.2 532.7C814 532.7 857 525.3 878.5 521.7L900 518L900 601L878.5 601C857 601 814 601 771.2 601C728.3 601 685.7 601 642.8 601C600 601 557 601 514.2 601C471.3 601 428.7 601 385.8 601C343 601 300 601 257.2 601C214.3 601 171.7 601 128.8 601C86 601 43 601 21.5 601L0 601Z" fill="#398991"></path><path d="M0 572L21.5 573C43 574 86 576 128.8 573.7C171.7 571.3 214.3 564.7 257.2 562.3C300 560 343 562 385.8 561.2C428.7 560.3 471.3 556.7 514.2 559.3C557 562 600 571 642.8 570.5C685.7 570 728.3 560 771.2 560C814 560 857 570 878.5 575L900 580L900 601L878.5 601C857 601 814 601 771.2 601C728.3 601 685.7 601 642.8 601C600 601 557 601 514.2 601C471.3 601 428.7 601 385.8 601C343 601 300 601 257.2 601C214.3 601 171.7 601 128.8 601C86 601 43 601 21.5 601L0 601Z" fill="#45a29e"></path></svg>